<svg class="tgme_action_button_icon embed_icon js-evernote-checked" xmlns="http://www.w3.org/2000/svg" viewBox="0 0 24 24" data-evernote-id="11"><path class="icon_body js-evernote-checked" d="M8 16.5L3.5 12 8 7.5m8 9l4.5-4.5L16 7.5M31.83 16.5l-4.5-4.5 4.5-4.5m8.34 9l4.5-4.5-4.5-4.5M55.085 16.5l-4.5-4.5 4.5-4.5m9.83 9l4.5-4.5-4.5-4.5M78.449 16.5l-4.5-4.5 4.5-4.5m11.102 9l4.5-4.5-4.5-4.5M102.158 16.5l-4.5-4.5 4.5-4.5m11.684 9l4.5-4.5-4.5-4.5M126.033 16.5l-4.5-4.5 4.5-4.5m11.934 9l4.5-4.5-4.5-4.5M150 16.5l-4.5-4.5 4.5-4.5m12 9l4.5-4.5-4.5-4.5M174.098 16.5l-4.5-4.5 4.5-4.5m11.804 9l4.5-4.5-4.5-4.5M198.526 16.5l-4.5-4.5 4.5-4.5m10.948 9l4.5-4.5-4.5-4.5M223.372 16.5l-4.5-4.5 4.5-4.5m9.256 9l4.5-4.5-4.5-4.5M248.086 16.5l-4.5-4.5 4.5-4.5m7.828 9l4.5-4.5-4.5-4.5M272.511 16.5l-4.5-4.5 4.5-4.5m6.978 9l4.5-4.5-4.5-4.5M296.762 16.5l-4.5-4.5 4.5-4.5m6.476 9l4.5-4.5-4.5-4.5M320.906 16.5l-4.5-4.5 4.5-4.5m6.188 9l4.5-4.5-4.5-4.5M344.979 16.5l-4.5-4.5 4.5-4.5m6.042 9l4.5-4.5-4.5-4.5M369 16.5l-4.5-4.5 4.5-4.5m6 9l4.5-4.5-4.5-4.5M392.989 16.5l-4.5-4.5 4.5-4.5m6.022 9l4.5-4.5-4.5-4.5M416.95 16.5l-4.5-4.5 4.5-4.5m6.1 9l4.5-4.5-4.5-4.5M440.866 16.5l-4.5-4.5 4.5-4.5m6.268 9l4.5-4.5-4.5-4.5M464.722 16.5l-4.5-4.5 4.5-4.5m6.556 9l4.5-4.5-4.5-4.5M488.543 16.5l-4.5-4.5 4.5-4.5m6.914 9l4.5-4.5-4.5-4.5M512.386 16.5l-4.5-4.5 4.5-4.5m7.228 9l4.5-4.5-4.5-4.5M536.27 16.5l-4.5-4.5 4.5-4.5m7.46 9l4.5-4.5-4.5-4.5M560.186 16.5l-4.5-4.5 4.5-4.5m7.628 9l4.5-4.5-4.5-4.5M584.124 16.5l-4.5-4.5 4.5-4.5m7.752 9l4.5-4.5-4.5-4.5M608.079 16.5l-4.5-4.5 4.5-4.5m7.842 9l4.5-4.5-4.5-4.5M632.047 16.5l-4.5-4.5 4.5-4.5m7.906 9l4.5-4.5-4.5-4.5M656.025 16.5l-4.5-4.5 4.5-4.5m7.95 9l4.5-4.5-4.5-4.5M680.01 16.5l-4.5-4.5 4.5-4.5m7.98 9l4.5-4.5-4.5-4.5M704.002 16.5l-4.5-4.5 4.5-4.5m7.996 9l4.5-4.5-4.5-4.5M728 16.5l-4.5-4.5 4.5-4.5m8 9l4.5-4.5-4.5-4.5" fill="none" stroke-width="2" stroke-linecap="round" stroke-linejoin="round" data-evernote-id="164"></path></svg>