<svg class="tgme_action_button_icon web_icon js-evernote-checked" xmlns="http://www.w3.org/2000/svg" viewBox="0 0 24 24" data-evernote-id="10"><g class="icon_body js-evernote-checked" fill="none" stroke-width="2" data-evernote-id="84"><g data-evernote-id="85" class="js-evernote-checked"><path d="M12 3c-2.386 0-4.677.949-6.364 2.636C3.949 7.323 3 9.614 3 12c0 2.386.949 4.677 2.636 6.364C7.323 20.051 9.614 21 12 21c2.386 0 4.677-.949 6.364-2.636C20.051 16.677 21 14.386 21 12c0-2.386-.949-4.677-2.636-6.364C16.677 3.949 14.386 3 12 3zM20.5 15h-17m17-6h-17" data-evernote-id="86" class="js-evernote-checked"></path><path d="M12 21c-4.971 0-9-4.029-9-9s4.029-9 9-9" stroke-linecap="round" data-evernote-id="87" class="js-evernote-checked"></path><path d="M12 21c-1-.5-3.5-4.029-3.5-9S11 3.5 12 3M12 21c1-.5 3.5-4.029 3.5-9S13 3.5 12 3" stroke-linecap="round" data-evernote-id="88" class="js-evernote-checked"></path></g><g data-evernote-id="89" class="js-evernote-checked"><path d="M36 3c-2.386 0-4.677.949-6.364 2.636C27.949 7.323 27 9.614 27 12c0 2.386.949 4.677 2.636 6.364C31.323 20.051 33.614 21 36 21c2.386 0 4.677-.949 6.364-2.636C44.051 16.677 45 14.386 45 12c0-2.386-.949-4.677-2.636-6.364C40.677 3.949 38.386 3 36 3zM44.5 15h-17m17-6h-17" data-evernote-id="90" class="js-evernote-checked"></path><path d="M36 21c-4.942-.004-8.96-4.029-8.96-9S31.058 3.004 36 3" stroke-linecap="round" data-evernote-id="91" class="js-evernote-checked"></path><path d="M36 21c-.986-.5-3.45-4.029-3.45-9S35.014 3.5 36 3M36 21c1.029-.496 3.54-4.029 3.54-9S37.029 3.496 36 3" stroke-linecap="round" data-evernote-id="92" class="js-evernote-checked"></path></g><g data-evernote-id="93" class="js-evernote-checked"><path d="M60 3c-2.386 0-4.677.949-6.364 2.636C51.949 7.323 51 9.614 51 12c0 2.386.949 4.677 2.636 6.364C55.323 20.051 57.614 21 60 21c2.386 0 4.677-.949 6.364-2.636C68.051 16.677 69 14.386 69 12c0-2.386-.949-4.677-2.636-6.364C64.677 3.949 62.386 3 60 3zM68.5 15h-17m17-6h-17" data-evernote-id="94" class="js-evernote-checked"></path><path d="M60 21c-4.841-.016-8.82-4.029-8.82-9S55.159 3.016 60 3" stroke-linecap="round" data-evernote-id="95" class="js-evernote-checked"></path><path d="M60 21c-.934-.5-3.27-4.029-3.27-9S59.066 3.5 60 3M60 21c1.13-.484 3.68-4.029 3.68-9S61.13 3.484 60 3" stroke-linecap="round" data-evernote-id="96" class="js-evernote-checked"></path></g><g data-evernote-id="97" class="js-evernote-checked"><path d="M84 3c-2.386 0-4.677.949-6.364 2.636C75.949 7.323 75 9.614 75 12c0 2.386.949 4.677 2.636 6.364C79.323 20.051 81.614 21 84 21c2.386 0 4.677-.949 6.364-2.636C92.051 16.677 93 14.386 93 12c0-2.386-.949-4.677-2.636-6.364C88.677 3.949 86.386 3 84 3zM92.5 15h-17m17-6h-17" data-evernote-id="98" class="js-evernote-checked"></path><path d="M84 21c-4.633-.043-8.532-4.029-8.532-9S79.367 3.043 84 3" stroke-linecap="round" data-evernote-id="99" class="js-evernote-checked"></path><path d="M84 21c-.83-.5-2.904-4.029-2.904-9S83.17 3.5 84 3M84 21c1.338-.457 3.968-4.029 3.968-9S85.338 3.457 84 3" stroke-linecap="round" data-evernote-id="100" class="js-evernote-checked"></path></g><g data-evernote-id="101" class="js-evernote-checked"><path d="M108 3c-2.386 0-4.677.949-6.364 2.636C99.949 7.323 99 9.614 99 12c0 2.386.949 4.677 2.636 6.364C103.323 20.051 105.614 21 108 21c2.386 0 4.677-.949 6.364-2.636C116.051 16.677 117 14.386 117 12c0-2.386-.949-4.677-2.636-6.364C112.677 3.949 110.386 3 108 3zM116.5 15h-17m17-6h-17" data-evernote-id="102" class="js-evernote-checked"></path><path d="M108 21c-4.275-.088-8.037-4.029-8.037-9s3.762-8.912 8.037-9" stroke-linecap="round" data-evernote-id="103" class="js-evernote-checked"></path><path d="M108 21c-.65-.5-2.274-4.029-2.274-9S107.35 3.5 108 3M108 21c1.696-.412 4.463-4.029 4.463-9S109.696 3.412 108 3" stroke-linecap="round" data-evernote-id="104" class="js-evernote-checked"></path></g><g data-evernote-id="105" class="js-evernote-checked"><path d="M132 3c-2.386 0-4.677.949-6.364 2.636C123.949 7.323 123 9.614 123 12c0 2.386.949 4.677 2.636 6.364C127.323 20.051 129.614 21 132 21c2.386 0 4.677-.949 6.364-2.636C140.051 16.677 141 14.386 141 12c0-2.386-.949-4.677-2.636-6.364C136.677 3.949 134.386 3 132 3zM140.5 15h-17m17-6h-17" data-evernote-id="106" class="js-evernote-checked"></path><path d="M132 21c-3.751-.154-7.311-4.029-7.311-9s3.56-8.846 7.311-9" stroke-linecap="round" data-evernote-id="107" class="js-evernote-checked"></path><path d="M132 21c-.386-.5-1.35-4.029-1.35-9s.964-8.5 1.35-9M132 21c2.22-.346 5.189-4.029 5.189-9S134.22 3.346 132 3" stroke-linecap="round" data-evernote-id="108" class="js-evernote-checked"></path></g><g data-evernote-id="109" class="js-evernote-checked"><path d="M156 3c-2.386 0-4.677.949-6.364 2.636C147.949 7.323 147 9.614 147 12c0 2.386.949 4.677 2.636 6.364C151.323 20.051 153.614 21 156 21c2.386 0 4.677-.949 6.364-2.636C164.051 16.677 165 14.386 165 12c0-2.386-.949-4.677-2.636-6.364C160.677 3.949 158.386 3 156 3zM164.5 15h-17m17-6h-17" data-evernote-id="110" class="js-evernote-checked"></path><path d="M156 21c-3.155-.229-6.485-4.029-6.485-9s3.33-8.771 6.485-9" stroke-linecap="round" data-evernote-id="111" class="js-evernote-checked"></path><path d="M156 21c-.085-.5-.299-4.029-.299-9s.214-8.5.299-9M156 21c2.816-.271 6.015-4.029 6.015-9S158.816 3.271 156 3" stroke-linecap="round" data-evernote-id="112" class="js-evernote-checked"></path></g><g data-evernote-id="113" class="js-evernote-checked"><path d="M180 3c-2.386 0-4.677.949-6.364 2.636C171.949 7.323 171 9.614 171 12c0 2.386.949 4.677 2.636 6.364C175.323 20.051 177.614 21 180 21c2.386 0 4.677-.949 6.364-2.636C188.051 16.677 189 14.386 189 12c0-2.386-.949-4.677-2.636-6.364C184.677 3.949 182.386 3 180 3zM188.5 15h-17m17-6h-17" data-evernote-id="114" class="js-evernote-checked"></path><path d="M180 21c-2.627-.295-5.753-4.029-5.753-9s3.126-8.705 5.753-9M180 21c.181-.5.633-4.029.633-9s-.452-8.5-.633-9" stroke-linecap="round" data-evernote-id="115" class="js-evernote-checked"></path><path d="M180 21c3.344-.205 6.747-4.029 6.747-9S183.344 3.205 180 3" stroke-linecap="round" data-evernote-id="116" class="js-evernote-checked"></path></g><g data-evernote-id="117" class="js-evernote-checked"><path d="M204 3c-2.386 0-4.677.949-6.364 2.636C195.949 7.323 195 9.614 195 12c0 2.386.949 4.677 2.636 6.364C199.323 20.051 201.614 21 204 21c2.386 0 4.677-.949 6.364-2.636C212.051 16.677 213 14.386 213 12c0-2.386-.949-4.677-2.636-6.364C208.677 3.949 206.386 3 204 3zM212.5 15h-17m17-6h-17" data-evernote-id="118" class="js-evernote-checked"></path><path d="M204 21c-2.21-.348-5.176-4.029-5.176-9S201.79 3.348 204 3M204 21c.39-.5 1.367-4.029 1.367-9S204.39 3.5 204 3" stroke-linecap="round" data-evernote-id="119" class="js-evernote-checked"></path><path d="M204 21c3.761-.152 7.324-4.029 7.324-9S207.761 3.152 204 3" stroke-linecap="round" data-evernote-id="120" class="js-evernote-checked"></path></g><g data-evernote-id="121" class="js-evernote-checked"><path d="M228 3c-2.386 0-4.677.949-6.364 2.636C219.949 7.323 219 9.614 219 12c0 2.386.949 4.677 2.636 6.364C223.323 20.051 225.614 21 228 21c2.386 0 4.677-.949 6.364-2.636C236.051 16.677 237 14.386 237 12c0-2.386-.949-4.677-2.636-6.364C232.677 3.949 230.386 3 228 3zM236.5 15h-17m17-6h-17" data-evernote-id="122" class="js-evernote-checked"></path><path d="M228 21c-1.891-.388-4.734-4.029-4.734-9s2.843-8.612 4.734-9M228 21c.551-.5 1.929-4.029 1.929-9S228.551 3.5 228 3" stroke-linecap="round" data-evernote-id="123" class="js-evernote-checked"></path><path d="M228 21c4.08-.112 7.766-4.029 7.766-9S232.08 3.112 228 3" stroke-linecap="round" data-evernote-id="124" class="js-evernote-checked"></path></g><g data-evernote-id="125" class="js-evernote-checked"><path d="M252 3c-2.386 0-4.677.949-6.364 2.636C243.949 7.323 243 9.614 243 12c0 2.386.949 4.677 2.636 6.364C247.323 20.051 249.614 21 252 21c2.386 0 4.677-.949 6.364-2.636C260.051 16.677 261 14.386 261 12c0-2.386-.949-4.677-2.636-6.364C256.677 3.949 254.386 3 252 3zM260.5 15h-17m17-6h-17" data-evernote-id="126" class="js-evernote-checked"></path><path d="M252 21c-1.647-.419-4.396-4.029-4.396-9s2.749-8.581 4.396-9M252 21c.674-.5 2.36-4.029 2.36-9s-1.686-8.5-2.36-9" stroke-linecap="round" data-evernote-id="127" class="js-evernote-checked"></path><path d="M252 21c4.324-.081 8.104-4.029 8.104-9s-3.78-8.919-8.104-9" stroke-linecap="round" data-evernote-id="128" class="js-evernote-checked"></path></g><g data-evernote-id="129" class="js-evernote-checked"><path d="M276 3c-2.386 0-4.677.949-6.364 2.636C267.949 7.323 267 9.614 267 12c0 2.386.949 4.677 2.636 6.364C271.323 20.051 273.614 21 276 21c2.386 0 4.677-.949 6.364-2.636C284.051 16.677 285 14.386 285 12c0-2.386-.949-4.677-2.636-6.364C280.677 3.949 278.386 3 276 3zM284.5 15h-17m17-6h-17" data-evernote-id="130" class="js-evernote-checked"></path><path d="M276 21c-1.459-.442-4.135-4.029-4.135-9s2.676-8.558 4.135-9M276 21c.769-.5 2.691-4.029 2.691-9S276.769 3.5 276 3" stroke-linecap="round" data-evernote-id="131" class="js-evernote-checked"></path><path d="M276 21c4.512-.058 8.365-4.029 8.365-9S280.512 3.058 276 3" stroke-linecap="round" data-evernote-id="132" class="js-evernote-checked"></path></g><g data-evernote-id="133" class="js-evernote-checked"><path d="M300 3c-2.386 0-4.677.949-6.364 2.636C291.949 7.323 291 9.614 291 12c0 2.386.949 4.677 2.636 6.364C295.323 20.051 297.614 21 300 21c2.386 0 4.677-.949 6.364-2.636C308.051 16.677 309 14.386 309 12c0-2.386-.949-4.677-2.636-6.364C304.677 3.949 302.386 3 300 3zM308.5 15h-17m17-6h-17" data-evernote-id="134" class="js-evernote-checked"></path><path d="M300 21c-1.315-.46-3.936-4.029-3.936-9s2.621-8.54 3.936-9M300 21c.842-.5 2.945-4.029 2.945-9S300.842 3.5 300 3" stroke-linecap="round" data-evernote-id="135" class="js-evernote-checked"></path><path d="M300 21c4.656-.04 8.564-4.029 8.564-9S304.656 3.04 300 3" stroke-linecap="round" data-evernote-id="136" class="js-evernote-checked"></path></g><g data-evernote-id="137" class="js-evernote-checked"><path d="M324 3c-2.386 0-4.677.949-6.364 2.636C315.949 7.323 315 9.614 315 12c0 2.386.949 4.677 2.636 6.364C319.323 20.051 321.614 21 324 21c2.386 0 4.677-.949 6.364-2.636C332.051 16.677 333 14.386 333 12c0-2.386-.949-4.677-2.636-6.364C328.677 3.949 326.386 3 324 3zM332.5 15h-17m17-6h-17" data-evernote-id="138" class="js-evernote-checked"></path><path d="M324 21c-1.205-.474-3.784-4.029-3.784-9s2.579-8.526 3.784-9M324 21c.897-.5 3.138-4.029 3.138-9S324.897 3.5 324 3" stroke-linecap="round" data-evernote-id="139" class="js-evernote-checked"></path><path d="M324 21c4.766-.026 8.716-4.029 8.716-9s-3.95-8.974-8.716-9" stroke-linecap="round" data-evernote-id="140" class="js-evernote-checked"></path></g><g data-evernote-id="141" class="js-evernote-checked"><path d="M348 3c-2.386 0-4.677.949-6.364 2.636C339.949 7.323 339 9.614 339 12c0 2.386.949 4.677 2.636 6.364C343.323 20.051 345.614 21 348 21c2.386 0 4.677-.949 6.364-2.636C356.051 16.677 357 14.386 357 12c0-2.386-.949-4.677-2.636-6.364C352.677 3.949 350.386 3 348 3zM356.5 15h-17m17-6h-17" data-evernote-id="142" class="js-evernote-checked"></path><path d="M348 21c-1.124-.484-3.672-4.029-3.672-9s2.548-8.516 3.672-9M348 21c.938-.5 3.282-4.029 3.282-9S348.938 3.5 348 3" stroke-linecap="round" data-evernote-id="143" class="js-evernote-checked"></path><path d="M348 21c4.847-.016 8.828-4.029 8.828-9S352.847 3.016 348 3" stroke-linecap="round" data-evernote-id="144" class="js-evernote-checked"></path></g><g data-evernote-id="145" class="js-evernote-checked"><path d="M372 3c-2.386 0-4.677.949-6.364 2.636C363.949 7.323 363 9.614 363 12c0 2.386.949 4.677 2.636 6.364C367.323 20.051 369.614 21 372 21c2.386 0 4.677-.949 6.364-2.636C380.051 16.677 381 14.386 381 12c0-2.386-.949-4.677-2.636-6.364C376.677 3.949 374.386 3 372 3zM380.5 15h-17m17-6h-17" data-evernote-id="146" class="js-evernote-checked"></path><path d="M372 21c-1.066-.492-3.592-4.029-3.592-9s2.526-8.508 3.592-9M372 21c.967-.5 3.384-4.029 3.384-9S372.967 3.5 372 3" stroke-linecap="round" data-evernote-id="147" class="js-evernote-checked"></path><path d="M372 21c4.905-.008 8.908-4.029 8.908-9S376.905 3.008 372 3" stroke-linecap="round" data-evernote-id="148" class="js-evernote-checked"></path></g><g data-evernote-id="149" class="js-evernote-checked"><path d="M396 3c-2.386 0-4.677.949-6.364 2.636C387.949 7.323 387 9.614 387 12c0 2.386.949 4.677 2.636 6.364C391.323 20.051 393.614 21 396 21c2.386 0 4.677-.949 6.364-2.636C404.051 16.677 405 14.386 405 12c0-2.386-.949-4.677-2.636-6.364C400.677 3.949 398.386 3 396 3zM404.5 15h-17m17-6h-17" data-evernote-id="150" class="js-evernote-checked"></path><path d="M396 21c-1.028-.496-3.539-4.029-3.539-9s2.511-8.504 3.539-9M396 21c.986-.5 3.451-4.029 3.451-9S396.986 3.5 396 3" stroke-linecap="round" data-evernote-id="151" class="js-evernote-checked"></path><path d="M396 21c4.943-.004 8.961-4.029 8.961-9S400.943 3.004 396 3" stroke-linecap="round" data-evernote-id="152" class="js-evernote-checked"></path></g><g data-evernote-id="153" class="js-evernote-checked"><path d="M420 3c-2.386 0-4.677.949-6.364 2.636C411.949 7.323 411 9.614 411 12c0 2.386.949 4.677 2.636 6.364C415.323 20.051 417.614 21 420 21c2.386 0 4.677-.949 6.364-2.636C428.051 16.677 429 14.386 429 12c0-2.386-.949-4.677-2.636-6.364C424.677 3.949 422.386 3 420 3zM428.5 15h-17m17-6h-17" data-evernote-id="154" class="js-evernote-checked"></path><path d="M420 21c-1.007-.499-3.509-4.029-3.509-9s2.502-8.501 3.509-9M420 21c.997-.5 3.488-4.029 3.488-9S420.997 3.5 420 3" stroke-linecap="round" data-evernote-id="155" class="js-evernote-checked"></path><path d="M420 21c4.964-.001 8.991-4.029 8.991-9S424.964 3.001 420 3" stroke-linecap="round" data-evernote-id="156" class="js-evernote-checked"></path></g><g data-evernote-id="157" class="js-evernote-checked"><path d="M444 3c-2.386 0-4.677.949-6.364 2.636C435.949 7.323 435 9.614 435 12c0 2.386.949 4.677 2.636 6.364C439.323 20.051 441.614 21 444 21c2.386 0 4.677-.949 6.364-2.636C452.051 16.677 453 14.386 453 12c0-2.386-.949-4.677-2.636-6.364C448.677 3.949 446.386 3 444 3zM452.5 15h-17m17-6h-17" data-evernote-id="158" class="js-evernote-checked"></path><path d="M444 21c-1-.5-3.5-4.029-3.5-9s2.5-8.5 3.5-9M444 21c1-.5 3.5-4.029 3.5-9S445 3.5 444 3" stroke-linecap="round" data-evernote-id="159" class="js-evernote-checked"></path><path d="M444 21c4.971 0 9-4.029 9-9s-4.029-9-9-9" stroke-linecap="round" data-evernote-id="160" class="js-evernote-checked"></path></g></g></svg>